# xmcd CD database file
#
# Track frame offsets:
#	150
#	12899
#	26632
#	38447
#	52774
#	68554
#	81273
#	96718
#	109313
#	131948
#	151835
#	206605
#	221146
#	235922
#	250387
#	264027
#	277140
#	293323
#
# Disc length: 4098 seconds
#
# Revision: 0
# Processed by: cddbd v1.5.2PL0 Copyright (c) Steve Scherf et al.
# Submitted via: CDex 1.51
#
DISCID=fc100012
DTITLE=Benny Goodman - JAZZ BASICS
DYEAR=1900
DGENRE=Jazz
TTITLE0=That's A Plenty
TTITLE1=Beale Street Blues
TTITLE2=Riffin' The Scotch
TTITLE3=King Porter Stomp
TTITLE4=Body And Soul
TTITLE5=Madhouse
TTITLE6=Moon Glow
TTITLE7=Avalon
TTITLE8=St. Louis Blues
TTITLE9=Don't Be That Way
TTITLE10=Sing, Sing, Sing
TTITLE11=Big John Special
TTITLE12=Flying Home
TTITLE13=Memories Of You
TTITLE14=Wholly Cats
TTITLE15=Clarinet Á La King
TTITLE16=Swedish Pastry
TTITLE17=Stealin' Apples
EXTD=
EXTT0=
EXTT1=
EXTT2=
EXTT3=
EXTT4=
EXTT5=
EXTT6=
EXTT7=
EXTT8=
EXTT9=
EXTT10=
EXTT11=
EXTT12=
EXTT13=
EXTT14=
EXTT15=
EXTT16=
EXTT17=
PLAYORDER=
